{
  "asset": {
    "generator": "gltfeditor.com",
    "version": "2.0"
  },
  "buffers": [
    {
      "uri": "data:application/octet-stream;base64,",
      "byteLength": 87912
    },
    {
      "uri": "data:application/octet-stream;base64,",
      "byteLength": 87912
    },
    {
      "uri": "data:application/octet-stream;base64,",
      "byteLength": 58608
    },
    {
      "uri": "data:application/octet-stream;base64,",
      "byteLength": 144000
    }
  ],
  "bufferViews": [
    {
      "buffer": 0,
      "byteOffset": 0,
      "byteLength": 87912,
      "target": 34962,
      "byteStride": 12
    },
    {
      "buffer": 1,
      "byteOffset": 0,
      "byteLength": 87912,
      "target": 34962,
      "byteStride": 12
    },
    {
      "buffer": 2,
      "byteOffset": 0,
      "byteLength": 58608,
      "target": 34962,
      "byteStride": 8
    },
    {
      "buffer": 3,
      "byteOffset": 0,
      "byteLength": 144000,
      "target": 34963
    }
  ],
  "accessors": [
    {
      "bufferView": 0,
      "byteOffset": 0,
      "componentType": 5126,
      "count": 7326,
      "max": [
        0.03913038969039917,
        0.0016507285181432962,
        0.00012292154133319855
      ],
      "min": [
        0.0011720118345692754,
        -0.0016499999910593033,
        -0.022982178255915642
      ],
      "type": "VEC3"
    },
    {
      "bufferView": 1,
      "byteOffset": 0,
      "componentType": 5126,
      "count": 7326,
      "max": [
        0.9727290272712708,
        1,
        0.973372757434845
      ],
      "min": [
        -0.9719737768173218,
        -1,
        -0.9727290272712708
      ],
      "type": "VEC3"
    },
    {
      "bufferView": 2,
      "byteOffset": 0,
      "componentType": 5126,
      "count": 7326,
      "max": [
        1,
        1
      ],
      "min": [
        0,
        0
      ],
      "type": "VEC2"
    },
    {
      "bufferView": 3,
      "byteOffset": 0,
      "componentType": 5125,
      "normalized": false,
      "count": 36000,
      "max": [
        7325
      ],
      "min": [
        0
      ],
      "type": "SCALAR"
    }
  ],
  "scene": 0,
  "scenes": [
    {
      "nodes": [
        0
      ],
      "name": "Scene"
    }
  ],
  "nodes": [
    {
      "name": "path255",
      "matrix": [
        293.32513427734375,
        -12.855215072631836,
        61.604427337646484,
        0,
        -60.919471740722656,
        15.661009788513184,
        293.3318176269531,
        0,
        -15.785439491271973,
        -299.3150329589844,
        12.702116012573242,
        0,
        -5.0475993156433105,
        -0.22762957215309143,
        0.4392586052417755,
        1
      ],
      "mesh": 0,
      "extensions": {
        "KHR_lights_punctual": {
          "light": 0
        }
      }
    }
  ],
  "meshes": [
    {
      "primitives": [
        {
          "attributes": {
            "POSITION": 0,
            "NORMAL": 1,
            "TEXCOORD_0": 2
          },
          "material": 0,
          "mode": 4,
          "indices": 3
        }
      ]
    }
  ],
  "materials": [
    {
      "pbrMetallicRoughness": {
        "baseColorFactor": [
          0.027450980392156862,
          0.09803921568627451,
          0.32941176470588235,
          1
        ],
        "metallicFactor": 1,
        "roughnessFactor": 0.4700000000000001
      },
      "emissiveFactor": [
        0,
        0,
        0
      ],
      "alphaMode": "BLEND",
      "doubleSided": true
    }
  ],
  "extensionsUsed": [
    "KHR_lights_punctual"
  ],
  "extensionsRequired": [
    "KHR_lights_punctual"
  ],
  "extensions": {
    "KHR_lights_punctual": {
      "lights": [
        {
          "name": "",
          "type": "point"
        }
      ]
    }
  }
}